<?xml version="1.0" encoding="iso-8859-1"?>
<!-- Uploaded to: SVG Repo, www.svgrepo.com, Generator: SVG Repo Mixer Tools -->
<svg height="800px" width="800px" version="1.1" id="Layer_1" xmlns="http://www.w3.org/2000/svg" xmlns:xlink="http://www.w3.org/1999/xlink" 
	 viewBox="0 0 512 512" xml:space="preserve">
<g>
	<path style="fill:#2D527C;" d="M325.711,512H110.537c-28.486,0-51.66-23.174-51.66-51.66V225.285
		c0-17.428,8.742-33.474,23.388-42.922l132.997-85.806c24.747-15.967,56.726-15.967,81.473,0l132.997,85.806
		c14.645,9.448,23.388,25.493,23.388,42.922v256.394c0,8.158-6.613,14.772-14.772,14.772s-14.772-6.613-14.772-14.772V225.285
		c0-7.347-3.687-14.113-9.86-18.097l-132.997-85.806c-15.018-9.689-34.425-9.689-49.441,0L98.283,207.188
		c-6.175,3.984-9.86,10.749-9.86,18.097v235.056c0,12.196,9.921,22.116,22.116,22.116h215.173c8.158,0,14.772,6.613,14.772,14.772
		S333.869,512,325.711,512z"/>
	<path style="fill:#2D527C;" d="M486.917,172.984c-2.842,0-5.715-0.818-8.249-2.529L281.505,37.411
		c-15.493-10.455-35.516-10.455-51.011,0L33.332,170.455c-6.764,4.566-15.943,2.78-20.508-3.981
		c-4.563-6.762-2.78-15.945,3.982-20.508L213.969,12.921c25.533-17.228,58.528-17.228,84.061,0l197.164,133.044
		c6.762,4.563,8.545,13.745,3.982,20.508C496.321,170.702,491.662,172.984,486.917,172.984z"/>
</g>
<path style="fill:#CEE8FA;" d="M327.872,213.652c-14.467,0-26.196,11.729-26.196,26.196v52.633h-91.351v-52.633
	c0-14.467-11.729-26.196-26.196-26.196s-26.196,11.729-26.196,26.196v157.658c0,14.467,11.729,26.196,26.196,26.196
	s26.196-11.729,26.196-26.196v-52.633h91.351v52.633c0,14.467,11.729,26.196,26.196,26.196c14.467,0,26.196-11.729,26.196-26.196
	V239.848C354.068,225.381,342.339,213.652,327.872,213.652z"/>
<path style="fill:#2D527C;" d="M327.872,438.474c-22.59,0-40.968-18.377-40.968-40.968v-37.861h-61.808v37.861
	c0,22.589-18.377,40.968-40.968,40.968c-22.589,0-40.968-18.377-40.968-40.968V239.848c0-22.59,18.377-40.968,40.968-40.968
	s40.968,18.377,40.968,40.968v37.861h61.808v-37.861c0-22.59,18.377-40.968,40.968-40.968c22.589,0,40.968,18.377,40.968,40.968
	v157.658C368.84,420.097,350.461,438.474,327.872,438.474z M210.325,330.102h91.351c8.158,0,14.772,6.613,14.772,14.772v52.633
	c0,6.3,5.126,11.424,11.424,11.424s11.424-5.124,11.424-11.424V239.848c0-6.3-5.124-11.424-11.424-11.424
	s-11.424,5.126-11.424,11.424v52.633c0,8.158-6.613,14.772-14.772,14.772h-91.351c-8.158,0-14.772-6.613-14.772-14.772v-52.633
	c0-6.3-5.126-11.424-11.424-11.424c-6.299,0-11.424,5.126-11.424,11.424v157.658c0,6.3,5.124,11.424,11.424,11.424
	c6.3,0,11.424-5.124,11.424-11.424v-52.633C195.553,336.715,202.166,330.102,210.325,330.102z"/>
</svg>